<?xml version="1.0" standalone="no"?>
<!DOCTYPE svg PUBLIC "-//W3C//DTD SVG 20010904//EN"
 "http://www.w3.org/TR/2001/REC-SVG-20010904/DTD/svg10.dtd">
<svg version="1.0" xmlns="http://www.w3.org/2000/svg"
 width="240.000000pt" height="240.000000pt" viewBox="0 0 240.000000 240.000000"
 preserveAspectRatio="xMidYMid meet">
<metadata>
Created by potrace 1.11, written by Peter Selinger 2001-2013
</metadata>
<g transform="translate(0.000000,240.000000) scale(0.100000,-0.100000)"
fill="#000000" stroke="none">
<path d="M1109 2396 c-2 -2 -24 -6 -49 -9 -120 -15 -287 -90 -402 -181 -132
-105 -262 -310 -293 -463 -20 -97 -23 -140 -20 -243 6 -189 54 -328 166 -476
28 -38 54 -71 58 -74 14 -11 132 -161 198 -250 123 -168 215 -336 267 -489 49
-142 94 -194 182 -207 55 -8 107 17 145 69 23 31 70 156 104 272 12 42 23 69
61 146 56 115 129 223 258 384 130 161 190 259 228 372 35 104 42 152 42 293
0 126 -5 166 -39 267 -80 240 -250 423 -485 524 -47 20 -114 42 -150 49 -61
12 -262 24 -271 16z"/>
</g>
</svg>
